<svg xmlns="http://www.w3.org/2000/svg" width="512" height="512" viewBox="0 0 512 512">
  <defs>
    <linearGradient id="bg" x1="0" y1="0" x2="1" y2="1">
      <stop offset="0" stop-color="#f7913c"/>
      <stop offset="1" stop-color="#e63c78"/>
    </linearGradient>
  </defs>
  <rect width="512" height="512" rx="112" fill="url(#bg)"/>
  <!-- talerz -->
  <circle cx="256" cy="268" r="118" fill="#ffffff" opacity="0.16"/>
  <circle cx="256" cy="268" r="82" fill="#ffffff" opacity="0.22"/>
  <!-- widelec -->
  <g fill="#ffffff">
    <rect x="150" y="120" width="14" height="70" rx="7"/>
    <rect x="176" y="120" width="14" height="70" rx="7"/>
    <rect x="202" y="120" width="14" height="70" rx="7"/>
    <path d="M150 185 h66 a10 10 0 0 1 10 10 v6 a33 33 0 0 1 -33 33 h-20 a33 33 0 0 1 -33 -33 v-6 a10 10 0 0 1 10 -10 z"/>
    <rect x="176" y="228" width="14" height="176" rx="7"/>
    <!-- nóż -->
    <path d="M338 120 c26 10 40 44 40 92 c0 40 -12 66 -26 70 l-14 4 z"/>
    <rect x="336" y="250" width="14" height="154" rx="7"/>
  </g>
</svg>
